<svg id="Capa_1" enable-background="new 0 0 512 512" height="512" viewBox="0 0 512 512" width="512" xmlns="http://www.w3.org/2000/svg"><g><g><path d="m333.202 122.693h-288.962c-18.91 0-34.24 15.33-34.24 34.24v193.514h357.442v-193.514c0-18.911-15.329-34.24-34.24-34.24zm-170.379 174.987c0 9.177-7.44 16.617-16.617 16.617h-81.336c-9.177 0-16.617-7.439-16.617-16.617v-103.396c0-9.177 7.44-16.616 16.617-16.616h81.337c9.177 0 16.617 7.439 16.617 16.616v103.396zm166.366 3.786c0 7.086-5.744 12.831-12.831 12.831h-107.82c-7.086 0-12.831-5.744-12.831-12.831v-16.4c0-7.086 5.744-12.831 12.831-12.831h107.821c7.086 0 12.831 5.744 12.831 12.831v16.4zm0-91.067c0 7.086-5.744 12.831-12.831 12.831h-107.82c-7.086 0-12.831-5.744-12.831-12.831v-19.901c0-7.086 5.744-12.83 12.831-12.83h107.821c7.086 0 12.831 5.744 12.831 12.83v19.901z" fill="#fff"/><path d="m10 369.626c0 18.91 15.33 34.24 34.24 34.24h116.856 55.093 117.013c18.91 0 34.24-15.33 34.24-34.24v-19.18h-357.442z" fill="#a5dbff"/><path d="m146.207 177.668h-81.337c-9.177 0-16.617 7.439-16.617 16.616v103.396c0 9.177 7.44 16.617 16.617 16.617h81.337c9.177 0 16.617-7.439 16.617-16.617v-103.396c-.001-9.177-7.44-16.616-16.617-16.616z" fill="#66e4d1"/><path d="m316.358 177.668h-107.82c-7.086 0-12.831 5.744-12.831 12.83v19.901c0 7.086 5.744 12.831 12.831 12.831h107.821c7.086 0 12.831-5.744 12.831-12.831v-19.901c-.001-7.086-5.745-12.83-12.832-12.83z" fill="#fff398"/><path d="m316.358 272.235h-107.82c-7.086 0-12.831 5.744-12.831 12.831v16.4c0 7.086 5.744 12.831 12.831 12.831h107.821c7.086 0 12.831-5.744 12.831-12.831v-16.4c-.001-7.086-5.745-12.831-12.832-12.831z" fill="#9593e6"/><ellipse cx="472.214" cy="200.449" fill="#fff7ba" rx="29.786" ry="29.786" transform="matrix(.998 -.071 .071 .998 -13.022 33.979)"/><ellipse cx="472.214" cy="85.438" fill="#fff398" rx="29.786" ry="29.786" transform="matrix(.099 -.995 .995 .099 340.661 546.935)"/><ellipse cx="472.214" cy="293.266" fill="#cbcaf3" rx="29.786" ry="29.786" transform="matrix(.987 -.16 .16 .987 -40.879 79.428)"/><path d="m155.276 456.348h66.733l-5.82-52.481h-55.093z" fill="#fff"/></g><g><path d="m377.442 210.448h56.26c4.447 17.114 20.027 29.786 38.512 29.786 21.938 0 39.786-17.848 39.786-39.786s-17.848-39.785-39.786-39.785c-18.485 0-34.065 12.672-38.512 29.785h-56.26v-33.516c0-24.395-19.846-44.24-44.24-44.24h-217.62c.452-9.587 8.37-17.254 18.068-17.254h300.052c4.447 17.113 20.027 29.785 38.512 29.785 21.938 0 39.786-17.848 39.786-39.785 0-21.938-17.848-39.786-39.786-39.786-18.485 0-34.065 12.673-38.512 29.786h-300.052c-20.727 0-37.63 16.635-38.09 37.254h-51.32c-24.394 0-44.24 19.846-44.24 44.24v212.694c0 24.394 19.846 44.239 44.24 44.239h105.685l-3.602 32.481h-24.413c-5.523 0-10 4.478-10 10s4.477 10 10 10h133.465c5.523 0 10-4.478 10-10s-4.477-10-10-10h-24.414l-3.602-32.481h105.843c24.394 0 44.24-19.846 44.24-44.239 0-17.105 0-50.488 0-66.361h56.26c4.447 17.114 20.027 29.786 38.512 29.786 21.938 0 39.786-17.848 39.786-39.786s-17.848-39.786-39.786-39.786c-18.485 0-34.065 12.673-38.512 29.786h-56.26zm94.772-29.785c10.91 0 19.786 8.876 19.786 19.785 0 10.91-8.876 19.786-19.786 19.786s-19.786-8.876-19.786-19.786c0-10.909 8.876-19.785 19.786-19.785zm0-115.011c10.91 0 19.786 8.876 19.786 19.786 0 10.909-8.876 19.785-19.786 19.785s-19.786-8.876-19.786-19.785c0-10.91 8.876-19.786 19.786-19.786zm0 207.827c10.91 0 19.786 8.876 19.786 19.786s-8.876 19.786-19.786 19.786-19.786-8.876-19.786-19.786 8.876-19.786 19.786-19.786zm-261.376 172.869h-44.392l3.602-32.481h37.189zm146.604-105.902h-33.109c-5.523 0-10 4.478-10 10s4.477 10 10 10h33.109v9.181c0 13.365-10.874 24.239-24.24 24.239-10.015 0-274.856 0-288.962 0-13.366 0-24.24-10.874-24.24-24.239v-9.181h224.333c5.523 0 10-4.478 10-10s-4.477-10-10-10h-224.333v-183.513c0-13.366 10.874-24.24 24.24-24.24h51.298v34.976h-30.668c-14.676 0-26.617 11.94-26.617 26.616v103.395c0 14.677 11.94 26.617 26.617 26.617h81.337c14.676 0 26.616-11.94 26.616-26.617v-103.396c0-14.676-11.94-26.616-26.616-26.616h-30.668v-34.976h217.664c13.366 0 24.24 10.874 24.24 24.24v33.516h-18.255c-.027-12.566-10.257-22.78-22.829-22.78h-107.821c-12.589 0-22.831 10.241-22.831 22.83v19.901c0 12.589 10.242 22.83 22.831 22.83h107.821c12.573 0 22.803-10.215 22.829-22.781h18.255v72.817h-18.331c-.922-11.75-10.77-21.03-22.753-21.03h-107.821c-12.589 0-22.831 10.241-22.831 22.83v16.4c0 12.589 10.242 22.831 22.831 22.831h107.821c11.983 0 21.831-9.281 22.753-21.031h18.331v37.181zm-211.235-152.778c3.648 0 6.616 2.968 6.616 6.616v103.396c0 3.648-2.968 6.617-6.616 6.617h-81.337c-3.648 0-6.617-2.969-6.617-6.617v-103.396c0-3.648 2.968-6.616 6.617-6.616zm172.982 2.83v19.901c0 1.561-1.27 2.83-2.831 2.83h-107.82c-1.561 0-2.831-1.27-2.831-2.83v-19.901c0-1.561 1.27-2.83 2.831-2.83h107.821c1.56 0 2.83 1.27 2.83 2.83zm0 94.567v16.4c0 1.562-1.27 2.831-2.831 2.831h-107.82c-1.561 0-2.831-1.27-2.831-2.831v-16.4c0-1.561 1.27-2.83 2.831-2.83h107.821c1.56 0 2.83 1.27 2.83 2.83z"/><path d="m81.394 277.393c4.37 3.36 10.65 2.553 14.022-1.834l10.122-13.168 10.122 13.168c3.372 4.386 9.648 5.195 14.022 1.834 4.379-3.366 5.2-9.645 1.834-14.023l-13.365-17.387 13.365-17.387c3.366-4.379 2.545-10.657-1.834-14.023-4.378-3.366-10.657-2.544-14.022 1.834l-10.122 13.168-10.122-13.168c-3.365-4.377-9.644-5.198-14.022-1.834-4.379 3.366-5.2 9.645-1.834 14.023l13.365 17.387-13.365 17.386c-3.366 4.379-2.545 10.657 1.834 14.024z"/><path d="m284.358 340.446h-.025c-5.523 0-9.987 4.478-9.987 10s4.489 10 10.012 10 10-4.478 10-10-4.477-10-10-10z"/></g></g></svg>