<svg id="Layer_5" enable-background="new 0 0 64 64" height="512" viewBox="0 0 64 64" width="512" xmlns="http://www.w3.org/2000/svg"><g><g><g><path d="m50 22v.05c-1.4.12-2.72.51-3.92 1.11l-.08-.16v-13h-28v8h-4v-12c0-2.21 1.79-4 4-4h28c2.21 0 4 1.79 4 4z" fill="#969faa"/></g><g><path d="m50 44v14c0 2.21-1.79 4-4 4h-28c-2.21 0-4-1.79-4-4v-12h4v4h28v-7l.08-.16c1.2.6 2.52.99 3.92 1.11z" fill="#969faa"/></g><g><path d="m24 56-1.71 1.71c-.18.18-.44.29-.7.29h-.59c-.55 0-1-.45-1-1v-2c0-.55.45-1 1-1h.59c.26 0 .52.11.7.29z" fill="#fcd770"/></g><g><path d="m34 55v2c0 .55-.45 1-1 1h-2c-.55 0-1-.45-1-1v-2c0-.55.45-1 1-1h2c.55 0 1 .45 1 1z" fill="#fcd770"/></g><g><path d="m44 57c0 .55-.45 1-1 1h-.59c-.26 0-.52-.11-.7-.29l-1.71-1.71 1.71-1.71c.18-.18.44-.29.7-.29h.59c.55 0 1 .45 1 1z" fill="#fcd770"/></g><g><path d="m18 10v8h1l.65 2.57c.64.2 1.25.47 1.84.77l2.29-1.36 4.24 4.24-1.36 2.29c.3.59.57 1.2.77 1.84l2.57.65v6l-2.57.65c-.2.64-.47 1.25-.77 1.84l1.36 2.29-4.24 4.24-2.29-1.36c-.59.3-1.2.57-1.84.77l-.65 2.57h-1v4h28v-40z" fill="#69d6f4"/></g><g><circle cx="51" cy="33" fill="#e6e9ed" r="11"/></g><g><path d="m58.88 40.67c-1.99 2.06-4.78 3.33-7.88 3.33-.34 0-.67-.02-1-.05-1.4-.12-2.72-.51-3.92-1.11-1.11-.55-2.11-1.29-2.96-2.17.64-3.79 3.92-6.67 7.88-6.67s7.24 2.88 7.88 6.67z" fill="#b4dd7f"/></g><g><circle cx="51" cy="30" fill="#f0d0b4" r="4"/></g><g><path d="m42 19-10 5v-10z" fill="#ff826e"/></g><g><path d="m30 29v6l-2.57.65c-.2.64-.47 1.25-.77 1.84l1.36 2.29-4.24 4.24-2.29-1.36c-.59.3-1.2.57-1.84.77l-.65 2.57h-1-4-1l-.65-2.57c-.64-.2-1.25-.47-1.84-.77l-2.29 1.36-4.24-4.24 1.36-2.29c-.3-.59-.57-1.2-.77-1.84l-2.57-.65v-6l2.57-.65c.2-.64.47-1.25.77-1.84l-1.36-2.29 4.24-4.24 2.29 1.36c.59-.3 1.2-.57 1.84-.77l.65-2.57h1 4 1l.65 2.57c.64.2 1.25.47 1.84.77l2.29-1.36 4.24 4.24-1.36 2.29c.3.59.57 1.2.77 1.84zm-6 3c0-4.42-3.58-8-8-8s-8 3.58-8 8 3.58 8 8 8 8-3.58 8-8z" fill="#ffc729"/></g><g><path d="m16 24c4.42 0 8 3.58 8 8s-3.58 8-8 8-8-3.58-8-8 3.58-8 8-8zm4 8c0-2.21-1.79-4-4-4s-4 1.79-4 4 1.79 4 4 4 4-1.79 4-4z" fill="#fcd770"/></g></g><g><path d="m25 32c0-4.962-4.038-9-9-9s-9 4.038-9 9 4.038 9 9 9 9-4.038 9-9zm-16 0c0-3.86 3.14-7 7-7s7 3.14 7 7-3.14 7-7 7-7-3.14-7-7z"/><path d="m21 32c0-2.757-2.243-5-5-5s-5 2.243-5 5 2.243 5 5 5 5-2.243 5-5zm-8 0c0-1.654 1.346-3 3-3s3 1.346 3 3-1.346 3-3 3-3-1.346-3-3z"/><path d="m31 5h6v2h-6z"/><path d="m27 5h2v2h-2z"/><path d="m21.586 53h-.586c-1.103 0-2 .897-2 2v2c0 1.103.897 2 2 2h.586c.534 0 1.036-.208 1.414-.586l2.414-2.414-2.414-2.414c-.378-.378-.88-.586-1.414-.586zm0 4h-.586v-2h.586l1 1z"/><path d="m33 53h-2c-1.103 0-2 .897-2 2v2c0 1.103.897 2 2 2h2c1.103 0 2-.897 2-2v-2c0-1.103-.897-2-2-2zm-2 4v-2h2l.001 2z"/><path d="m43 53h-.586c-.534 0-1.036.208-1.414.586l-2.414 2.414 2.414 2.414c.378.378.88.586 1.414.586h.586c1.103 0 2-.897 2-2v-2c0-1.103-.897-2-2-2zm-.586 4-1-1 1-1h.586l.001 2z"/><path d="m51 21v-15c0-2.757-2.243-5-5-5h-28c-2.757 0-5 2.243-5 5v11h-.777l-.713 2.802c-.319.119-.639.252-.956.4l-2.49-1.48-5.342 5.342 1.48 2.489c-.147.317-.281.637-.4.956l-2.802.714v7.555l2.802.713c.119.319.252.639.4.956l-1.48 2.49 5.342 5.342 2.49-1.48c.317.147.636.281.956.4l.713 2.801h.777v11c0 2.757 2.243 5 5 5h28c2.757 0 5-2.243 5-5v-13c6.617 0 12-5.383 12-12s-5.383-12-12-12zm-36-15c0-1.654 1.346-3 3-3h28c1.654 0 3 1.346 3 3v15.181c-.689.116-1.356.291-2 .519v-12.7h-30v8h-2zm4 41h.777l.713-2.802c.319-.119.639-.252.956-.4l2.49 1.48 5.342-5.342-1.48-2.49c.147-.317.281-.636.4-.956l2.802-.713v-7.555l-2.802-.713c-.119-.319-.252-.639-.4-.956l1.48-2.489-5.342-5.342-2.49 1.48c-.317-.147-.636-.281-.956-.4l-.713-2.802h-.777v-6h26v11.624c-3.581 2.079-6 5.946-6 10.376s2.419 8.297 6 10.376v5.624h-26zm-8.033-5.227-.493-.254-2.095 1.246-3.143-3.143 1.246-2.095-.254-.493c-.288-.558-.525-1.124-.704-1.683l-.169-.528-2.355-.6v-4.445l2.354-.599.169-.528c.179-.559.416-1.125.704-1.684l.254-.493-1.246-2.095 3.143-3.143 2.095 1.246.493-.254c.558-.288 1.124-.525 1.683-.704l.528-.169.6-2.355h4.445l.599 2.354.528.169c.56.179 1.125.416 1.683.704l.493.254 2.095-1.246 3.143 3.143-1.246 2.095.254.493c.288.559.525 1.125.704 1.684l.169.528 2.356.599v4.445l-2.354.599-.169.528c-.179.56-.416 1.125-.704 1.683l-.254.493 1.246 2.095-3.143 3.143-2.095-1.246-.493.254c-.558.288-1.124.525-1.683.704l-.528.169-.6 2.356h-4.445l-.599-2.354-.528-.169c-.56-.179-1.126-.416-1.684-.704zm38.033 16.227c0 1.654-1.346 3-3 3h-28c-1.654 0-3-1.346-3-3v-11h2v4h30v-6.7c.644.229 1.311.403 2 .519zm2-15c-2.62 0-5-1.021-6.785-2.675.76-3.114 3.534-5.325 6.785-5.325s6.025 2.211 6.785 5.325c-1.785 1.654-4.165 2.675-6.785 2.675zm-3-13c0-1.654 1.346-3 3-3s3 1.346 3 3-1.346 3-3 3-3-1.346-3-3zm11.305 8.562c-.923-2.25-2.708-4.005-4.925-4.901.989-.914 1.62-2.211 1.62-3.661 0-2.757-2.243-5-5-5s-5 2.243-5 5c0 1.45.631 2.747 1.62 3.661-2.217.896-4.002 2.651-4.925 4.901-1.069-1.591-1.695-3.505-1.695-5.562 0-5.514 4.486-10 10-10s10 4.486 10 10c0 2.057-.626 3.971-1.695 5.562z"/><path d="m31 12.382v13.236l13.236-6.618zm2 3.236 6.764 3.382-6.764 3.382z"/></g></g></svg>