<svg enable-background="new 0 0 256 256" height="512" viewBox="0 0 256 256" width="512" xmlns="http://www.w3.org/2000/svg"><g id="Layer_54"><g><g><g><path d="m108.695 233.427v-1.756h-33.978c-3.06 0-5.541 2.481-5.541 5.541s2.481 5.541 5.541 5.541h43.303c-5.128-.001-9.325-4.197-9.325-9.326z" fill="#edf4fc"/></g></g><g><g><path d="m92.883 206.277h15.812v25.394h-15.812z" fill="#c7d7e5"/></g></g><g><g><path d="m182.796 232.026v-95.445c0-5.9 4.827-10.726 10.726-10.726h34.543v-35.793c0-5.129-4.197-9.325-9.325-9.325h-100.719c-5.129 0-9.325 4.196-9.325 9.325v143.365c0 5.129 4.196 9.325 9.325 9.325h75.501c-5.899 0-10.726-4.826-10.726-10.726z" fill="#5290db"/></g></g><g><g><path d="m108.695 90.062c0-5.129 4.196-9.325 9.325-9.325h100.719c5.128 0 9.325 4.196 9.325 9.324v-43.488c0-6.506-5.324-11.83-11.83-11.83h-201.904c-6.506 0-11.83 5.323-11.83 11.83v147.874c0 6.507 5.323 11.83 11.83 11.83h94.365z" fill="#5290db"/></g></g><g><g><path d="m242.774 125.855h-49.252c-5.899 0-10.726 4.826-10.726 10.726v95.445c0 5.899 4.827 10.726 10.726 10.726h49.252c5.899 0 10.726-4.827 10.726-10.726v-95.445c0-5.899-4.827-10.726-10.726-10.726z" fill="#5290db"/></g></g><g><g><path d="m240.927 135.282h-11.035c-1.523 0-2.918.907-3.48 2.323-1.306 3.286-4.513 5.609-8.265 5.609s-6.959-2.324-8.265-5.609c-.563-1.416-1.957-2.323-3.48-2.323h-11.035c-1.737 0-3.145 1.408-3.145 3.145v91.752c0 1.737 1.408 3.145 3.145 3.145h45.559c1.737 0 3.145-1.408 3.145-3.145v-91.752c.002-1.737-1.406-3.145-3.144-3.145z" fill="#edf4fc"/></g></g><g><g><path d="m182.796 232.026v-95.445c0-5.9 4.827-10.726 10.726-10.726h24.364v-34.019c0-.508-.412-.92-.921-.92h-97.17c-.508 0-.921.412-.921.92v139.817c0 .508.412.92.921.92h63.029c-.009-.182-.028-.362-.028-.547z" fill="#edf4fc"/></g></g><g><g><path d="m108.695 174.73h-106.195v19.717c0 6.507 5.323 11.83 11.83 11.83h94.365z" fill="#edf4fc"/></g></g><g><g><path d="m108.695 90.062c0-5.129 4.196-9.325 9.325-9.325h100.186v-34.164c0-1.084-.887-1.971-1.972-1.971h-201.904c-1.084 0-1.972.887-1.972 1.971v128.157h96.337z" fill="#edf4fc"/></g></g><g><g><path d="m216.235 44.601h-201.905c-1.084 0-1.972.887-1.972 1.972v9.927h205.849v-9.927c0-1.084-.888-1.972-1.972-1.972z" fill="#5290db"/></g></g><g><g><path d="m28.5 44.601h-14.17c-1.084 0-1.972.887-1.972 1.972v9.927h16.142z" fill="#fc657e"/></g></g><g><g><path d="m59.736 163.5h-31.472c-2.079 0-3.764-1.685-3.764-3.764v-40.471c0-2.079 1.685-3.764 3.764-3.764h31.471c2.079 0 3.764 1.685 3.764 3.764v40.471c.001 2.079-1.684 3.764-3.763 3.764z" fill="#70d6f9"/></g></g><g><g><path d="m108.695 163.5v-48h-30.431c-2.079 0-3.764 1.685-3.764 3.764v40.471c0 2.079 1.685 3.764 3.764 3.764h30.431z" fill="#f5c84c"/></g></g><g><g><path d="m232.749 187.67h-29.201c-1.601 0-2.899 1.298-2.899 2.899v7.224c0 1.601 1.298 2.899 2.899 2.899h29.201c1.601 0 2.899-1.298 2.899-2.899v-7.224c0-1.6-1.298-2.899-2.899-2.899z" fill="#f5c84c"/></g></g><g><g><path d="m232.749 210.307h-29.201c-1.601 0-2.899 1.298-2.899 2.899v7.224c0 1.601 1.298 2.899 2.899 2.899h29.201c1.601 0 2.899-1.298 2.899-2.899v-7.224c0-1.601-1.298-2.899-2.899-2.899z" fill="#fc657e"/></g></g><g><g><g><path d="m232.749 165.034h-29.201c-1.601 0-2.899 1.298-2.899 2.899v7.224c0 1.601 1.298 2.899 2.899 2.899h29.201c1.601 0 2.899-1.298 2.899-2.899v-7.224c0-1.601-1.298-2.899-2.899-2.899z" fill="#70d6f9"/></g></g></g><g><g><path d="m134.368 129.305c-2.111 0-3.823 1.711-3.823 3.823v14.835c0 2.111 1.711 3.823 3.823 3.823h48.428v-15.204c0-2.805 1.1-5.36 2.879-7.276h-51.307z" fill="#70d6f9"/></g></g><g><g><path d="m134.368 163.805c-2.111 0-3.823 1.711-3.823 3.823v14.835c0 2.111 1.711 3.823 3.823 3.823h48.428v-22.48h-48.428z" fill="#f5c84c"/></g></g><g><g><path d="m134.368 198.305c-2.111 0-3.823 1.711-3.823 3.823v14.835c0 2.111 1.711 3.823 3.823 3.823h48.428v-22.48h-48.428z" fill="#fc657e"/></g></g><g><g><path d="m255.863 78.438c-3.641-.678-6.511-3.489-7.203-7.056-.035-.179-.285-.179-.32 0-.692 3.567-3.562 6.378-7.203 7.056-.183.034-.183.279 0 .313 3.641.678 6.511 3.489 7.203 7.056.035.179.285.179.32 0 .692-3.567 3.562-6.378 7.203-7.056.183-.034.183-.279 0-.313z" fill="#f5c84c"/></g></g><g><g><path d="m140.131 17.224c-3.279-.611-5.864-3.143-6.488-6.355-.031-.161-.257-.161-.288 0-.623 3.213-3.208 5.745-6.488 6.355-.165.031-.165.251 0 .282 3.279.611 5.864 3.143 6.488 6.356.031.161.257.161.288 0 .623-3.213 3.208-5.745 6.488-6.356.165-.031.165-.251 0-.282z" fill="#fc657e"/></g></g><g><g><path d="m45.442 223.235h2.33v-2.33c0-1.744 1.413-3.157 3.157-3.157s3.157 1.413 3.157 3.157v2.33h2.329c1.744 0 3.157 1.413 3.157 3.157s-1.413 3.157-3.157 3.157h-2.329v2.33c0 1.744-1.413 3.157-3.157 3.157s-3.157-1.413-3.157-3.157v-2.33h-2.33c-1.744 0-3.157-1.413-3.157-3.157s1.413-3.157 3.157-3.157z" fill="#70d6f9"/></g></g><g><g><circle cx="241.721" cy="97.37" fill="#87d147" r="3.377"/></g></g><g><g><circle cx="108.721" cy="21.37" fill="#70d6f9" r="3.377"/></g></g><g><g><circle cx="24.721" cy="219.37" fill="#f5c84c" r="3.377"/></g></g><g><g><path d="m118.021 245.252h-43.303c-4.434 0-8.041-3.607-8.041-8.041s3.607-8.04 8.041-8.04h33.313c1.381 0 2.5 1.119 2.5 2.5s-1.119 2.5-2.5 2.5h-33.313c-1.677 0-3.041 1.363-3.041 3.04s1.364 3.041 3.041 3.041h43.303c1.381 0 2.5 1.119 2.5 2.5s-1.12 2.5-2.5 2.5z"/></g></g><g><g><path d="m92.883 233.406c-1.381 0-2.5-1.119-2.5-2.5v-23.864c0-1.381 1.119-2.5 2.5-2.5s2.5 1.119 2.5 2.5v23.864c0 1.381-1.119 2.5-2.5 2.5z"/></g></g><g><g><path d="m193.521 245.252h-75.501c-6.521 0-11.825-5.305-11.825-11.825v-143.365c0-6.521 5.305-11.825 11.825-11.825h100.719c6.521 0 11.825 5.305 11.825 11.825v35.146c0 1.381-1.119 2.5-2.5 2.5s-2.5-1.119-2.5-2.5v-35.146c0-3.764-3.062-6.825-6.825-6.825h-100.718c-3.764 0-6.825 3.062-6.825 6.825v143.365c0 3.764 3.062 6.825 6.825 6.825h75.501c1.381 0 2.5 1.119 2.5 2.5s-1.12 2.5-2.501 2.5z"/></g></g><g><g><path d="m108.125 208.777h-93.795c-7.901 0-14.33-6.429-14.33-14.33v-147.875c0-7.901 6.429-14.329 14.33-14.329h201.905c7.901 0 14.329 6.428 14.329 14.329v43.488c0 1.381-1.119 2.5-2.5 2.5s-2.5-1.119-2.5-2.5v-43.488c0-5.145-4.185-9.329-9.329-9.329h-201.905c-5.145 0-9.33 4.185-9.33 9.329v147.875c0 5.145 4.186 9.33 9.33 9.33h93.795c1.381 0 2.5 1.119 2.5 2.5s-1.119 2.5-2.5 2.5z"/></g></g><g><g><path d="m242.774 245.252h-49.253c-7.293 0-13.226-5.933-13.226-13.226v-95.445c0-7.293 5.933-13.226 13.226-13.226h49.253c7.293 0 13.226 5.933 13.226 13.226v95.445c0 7.293-5.933 13.226-13.226 13.226zm-49.253-116.897c-4.535 0-8.226 3.69-8.226 8.226v95.445c0 4.535 3.69 8.226 8.226 8.226h49.253c4.535 0 8.226-3.69 8.226-8.226v-95.445c0-4.535-3.69-8.226-8.226-8.226z"/></g></g><g><g><path d="m36.5 71h-6c-1.381 0-2.5-1.119-2.5-2.5s1.119-2.5 2.5-2.5h6c1.381 0 2.5 1.119 2.5 2.5s-1.119 2.5-2.5 2.5z"/></g></g><g><g><path d="m54 71h-6c-1.381 0-2.5-1.119-2.5-2.5s1.119-2.5 2.5-2.5h6c1.381 0 2.5 1.119 2.5 2.5s-1.119 2.5-2.5 2.5z"/></g></g><g><g><path d="m71.5 71h-6c-1.381 0-2.5-1.119-2.5-2.5s1.119-2.5 2.5-2.5h6c1.381 0 2.5 1.119 2.5 2.5s-1.119 2.5-2.5 2.5z"/></g></g><g><g><path d="m137.5 105h-6c-1.381 0-2.5-1.119-2.5-2.5s1.119-2.5 2.5-2.5h6c1.381 0 2.5 1.119 2.5 2.5s-1.119 2.5-2.5 2.5z"/></g></g><g><g><path d="m155 105h-6c-1.381 0-2.5-1.119-2.5-2.5s1.119-2.5 2.5-2.5h6c1.381 0 2.5 1.119 2.5 2.5s-1.119 2.5-2.5 2.5z"/></g></g><g><g><path d="m172.5 105h-6c-1.381 0-2.5-1.119-2.5-2.5s1.119-2.5 2.5-2.5h6c1.381 0 2.5 1.119 2.5 2.5s-1.119 2.5-2.5 2.5z"/></g></g><g><g><path d="m233.5 154h-6c-1.381 0-2.5-1.119-2.5-2.5s1.119-2.5 2.5-2.5h6c1.381 0 2.5 1.119 2.5 2.5s-1.119 2.5-2.5 2.5z"/></g></g><g><g><path d="m240.928 235.825h-45.56c-3.112 0-5.645-2.532-5.645-5.646v-91.752c0-3.113 2.532-5.646 5.645-5.646h11.035c2.584 0 4.862 1.53 5.804 3.898.974 2.45 3.306 4.033 5.941 4.033s4.968-1.583 5.941-4.033c.941-2.368 3.219-3.898 5.803-3.898h11.035c3.112 0 5.645 2.532 5.645 5.646v91.752c0 3.114-2.532 5.646-5.644 5.646zm-45.56-98.043c-.355 0-.645.29-.645.646v91.752c0 .355.289.646.645.646h45.56c.355 0 .645-.29.645-.646v-91.752c0-.355-.289-.646-.645-.646h-11.035c-.515 0-.979.3-1.156.746-1.735 4.365-5.892 7.186-10.588 7.186-4.697 0-8.854-2.82-10.588-7.187-.178-.445-.643-.745-1.157-.745z"/></g></g><g><g><path d="m182.438 235.073h-62.643c-1.887 0-3.421-1.534-3.421-3.42v-139.817c0-1.887 1.534-3.421 3.421-3.421h97.171c1.886 0 3.42 1.534 3.42 3.421v33.539c0 1.381-1.119 2.5-2.5 2.5s-2.5-1.119-2.5-2.5v-31.96h-94.012v136.658h61.063c1.381 0 2.5 1.119 2.5 2.5s-1.119 2.5-2.499 2.5z"/></g></g><g><g><path d="m108.313 177.23h-105.126c-1.381 0-2.5-1.119-2.5-2.5s1.119-2.5 2.5-2.5h105.126c1.381 0 2.5 1.119 2.5 2.5s-1.119 2.5-2.5 2.5z"/></g></g><g><g><path d="m12.358 176.75c-1.381 0-2.5-1.119-2.5-2.5v-127.678c0-2.465 2.006-4.471 4.472-4.471h201.905c2.466 0 4.472 2.006 4.472 4.471v33.553c0 1.381-1.119 2.5-2.5 2.5s-2.5-1.119-2.5-2.5v-33.023h-200.849v127.148c0 1.381-1.119 2.5-2.5 2.5z"/></g></g><g><g><path d="m217.531 59h-204.489c-1.381 0-2.5-1.119-2.5-2.5s1.119-2.5 2.5-2.5h204.489c1.381 0 2.5 1.119 2.5 2.5s-1.119 2.5-2.5 2.5z"/></g></g><g><g><path d="m28.5 58.25c-1.381 0-2.5-1.119-2.5-2.5v-10.594c0-1.381 1.119-2.5 2.5-2.5s2.5 1.119 2.5 2.5v10.594c0 1.381-1.119 2.5-2.5 2.5z"/></g></g><g><g><path d="m59.735 166h-31.47c-3.454 0-6.265-2.811-6.265-6.265v-40.471c0-3.454 2.811-6.265 6.265-6.265h31.471c3.454 0 6.265 2.811 6.265 6.265v40.471c-.001 3.454-2.812 6.265-6.266 6.265zm-31.47-48c-.697 0-1.265.567-1.265 1.265v40.471c0 .697.567 1.265 1.265 1.265h31.471c.697 0 1.265-.567 1.265-1.265v-40.471c0-.697-.567-1.265-1.265-1.265z"/></g></g><g><g><path d="m107.917 166h-29.652c-3.454 0-6.265-2.811-6.265-6.265v-40.471c0-3.454 2.811-6.265 6.265-6.265h29.767c1.381 0 2.5 1.119 2.5 2.5s-1.119 2.5-2.5 2.5h-29.767c-.697 0-1.265.567-1.265 1.265v40.471c0 .697.567 1.265 1.265 1.265h29.652c1.381 0 2.5 1.119 2.5 2.5s-1.119 2.5-2.5 2.5z"/></g></g><g><g><path d="m232.749 203.193h-29.201c-2.978 0-5.399-2.422-5.399-5.399v-7.224c0-2.978 2.422-5.4 5.399-5.4h29.201c2.978 0 5.399 2.423 5.399 5.4v7.224c0 2.977-2.421 5.399-5.399 5.399zm-29.201-13.023c-.221 0-.399.18-.399.4v7.224c0 .221.179.399.399.399h29.201c.221 0 .399-.179.399-.399v-7.224c0-.221-.179-.4-.399-.4z"/></g></g><g><g><path d="m232.749 225.83h-29.201c-2.978 0-5.399-2.423-5.399-5.4v-7.224c0-2.978 2.422-5.399 5.399-5.399h29.201c2.978 0 5.399 2.422 5.399 5.399v7.224c0 2.977-2.421 5.4-5.399 5.4zm-29.201-13.023c-.221 0-.399.179-.399.399v7.224c0 .221.179.4.399.4h29.201c.221 0 .399-.18.399-.4v-7.224c0-.221-.179-.399-.399-.399z"/></g></g><g><g><g><path d="m232.749 180.557h-29.201c-2.978 0-5.399-2.422-5.399-5.399v-7.224c0-2.978 2.422-5.399 5.399-5.399h29.201c2.978 0 5.399 2.422 5.399 5.399v7.224c0 2.977-2.421 5.399-5.399 5.399zm-29.201-13.023c-.221 0-.399.179-.399.399v7.224c0 .221.179.399.399.399h29.201c.221 0 .399-.179.399-.399v-7.224c0-.221-.179-.399-.399-.399z"/></g></g></g><g><g><path d="m182.25 154.285h-47.882c-3.486 0-6.323-2.836-6.323-6.322v-14.835c0-3.486 2.837-6.323 6.323-6.323h50.726c1.381 0 2.5 1.119 2.5 2.5s-1.119 2.5-2.5 2.5h-50.726c-.729 0-1.323.594-1.323 1.323v14.835c0 .729.594 1.322 1.323 1.322h47.882c1.381 0 2.5 1.119 2.5 2.5s-1.119 2.5-2.5 2.5z"/></g></g><g><g><path d="m182.25 188.785h-47.882c-3.486 0-6.323-2.836-6.323-6.322v-14.835c0-3.486 2.837-6.323 6.323-6.323h47.976c1.381 0 2.5 1.119 2.5 2.5s-1.119 2.5-2.5 2.5h-47.976c-.729 0-1.323.594-1.323 1.323v14.835c0 .729.594 1.322 1.323 1.322h47.882c1.381 0 2.5 1.119 2.5 2.5s-1.119 2.5-2.5 2.5z"/></g></g><g><g><path d="m182.094 223.285h-47.726c-3.486 0-6.323-2.836-6.323-6.322v-14.835c0-3.486 2.837-6.323 6.323-6.323h47.82c1.381 0 2.5 1.119 2.5 2.5s-1.119 2.5-2.5 2.5h-47.82c-.729 0-1.323.594-1.323 1.323v14.835c0 .729.594 1.322 1.323 1.322h47.726c1.381 0 2.5 1.119 2.5 2.5s-1.119 2.5-2.5 2.5z"/></g></g></g></g></svg>